<svg width="100" height="100" viewBox="0 0 100 100" fill="none" xmlns="http://www.w3.org/2000/svg">
<path d="M44.225 14.5812C44.4904 14.3095 44.8075 14.0937 45.1577 13.9465C45.5078 13.7994 45.8839 13.7238 46.2638 13.7244C46.6436 13.725 47.0195 13.8017 47.3692 13.9499C47.7189 14.0982 48.0354 14.3149 48.3 14.5875L80.6875 47.8187C81.2563 48.4023 81.5747 49.185 81.5747 50C81.5747 50.8149 81.2563 51.5977 80.6875 52.1812L48.3 85.4125C48.035 85.6847 47.7182 85.901 47.3682 86.0487C47.0183 86.1964 46.6423 86.2724 46.2625 86.2724C45.8826 86.2724 45.5066 86.1964 45.1567 86.0487C44.8067 85.901 44.4899 85.6847 44.225 85.4125C43.6798 84.8544 43.3746 84.1052 43.3746 83.325C43.3746 82.5448 43.6798 81.7956 44.225 81.2375L74.6812 50L44.225 18.75C43.6817 18.1922 43.3777 17.4443 43.3777 16.6656C43.3777 15.887 43.6817 15.1391 44.225 14.5812ZM19.225 14.5812C19.4904 14.3095 19.8075 14.0937 20.1577 13.9465C20.5078 13.7994 20.8839 13.7238 21.2638 13.7244C21.6436 13.725 22.0195 13.8017 22.3692 13.9499C22.7189 14.0982 23.0354 14.3149 23.3 14.5875L55.6875 47.8187C56.2563 48.4023 56.5747 49.185 56.5747 50C56.5747 50.8149 56.2563 51.5977 55.6875 52.1812L23.3 85.4125C23.035 85.6847 22.7182 85.901 22.3682 86.0487C22.0183 86.1964 21.6423 86.2724 21.2625 86.2724C20.8826 86.2724 20.5066 86.1964 20.1567 86.0487C19.8067 85.901 19.4899 85.6847 19.225 85.4125C18.6798 84.8544 18.3746 84.1052 18.3746 83.325C18.3746 82.5448 18.6798 81.7956 19.225 81.2375L49.6812 50L19.225 18.75C18.6817 18.1922 18.3777 17.4443 18.3777 16.6656C18.3777 15.887 18.6817 15.1391 19.225 14.5812Z" fill="#CF455C"/>
</svg>
