<svg width="100" height="100" viewBox="0 0 100 100" fill="none" xmlns="http://www.w3.org/2000/svg">
<path d="M51.7 14.5875C51.965 14.3153 52.2818 14.099 52.6317 13.9513C52.9817 13.8036 53.3577 13.7275 53.7375 13.7275C54.1173 13.7275 54.4933 13.8036 54.8433 13.9513C55.1932 14.099 55.51 14.3153 55.775 14.5875C56.3183 15.1453 56.6223 15.8932 56.6223 16.6719C56.6223 17.4505 56.3183 18.1984 55.775 18.7562L25.3187 49.9937L55.775 81.2375C56.0492 81.5182 56.2653 81.8501 56.4112 82.2143C56.5571 82.5786 56.6298 82.968 56.6251 83.3603C56.6205 83.7527 56.5386 84.1403 56.3842 84.5009C56.2297 84.8616 56.0057 85.1884 55.725 85.4625C55.4576 85.7238 55.1413 85.9298 54.7942 86.0687C54.4471 86.2077 54.076 86.2768 53.7021 86.2721C53.3283 86.2675 52.959 86.1892 52.6155 86.0417C52.2719 85.8942 51.9608 85.6804 51.7 85.4125L19.3125 52.175C18.7437 51.5914 18.4253 50.8087 18.4253 49.9937C18.4253 49.1788 18.7437 48.3961 19.3125 47.8125L51.7 14.5875ZM76.7 14.5875C76.965 14.3153 77.2818 14.099 77.6317 13.9513C77.9817 13.8036 78.3577 13.7275 78.7375 13.7275C79.1173 13.7275 79.4933 13.8036 79.8433 13.9513C80.1932 14.099 80.51 14.3153 80.775 14.5875C81.3183 15.1453 81.6223 15.8932 81.6223 16.6719C81.6223 17.4505 81.3183 18.1984 80.775 18.7562L50.3187 49.9937L80.775 81.2375C81.0492 81.5182 81.2653 81.8501 81.4112 82.2143C81.5571 82.5786 81.6298 82.968 81.6251 83.3603C81.6205 83.7527 81.5386 84.1403 81.3842 84.5009C81.2297 84.8616 81.0057 85.1884 80.725 85.4625C80.4576 85.7238 80.1413 85.9298 79.7942 86.0687C79.4471 86.2077 79.076 86.2768 78.7021 86.2721C78.3283 86.2675 77.959 86.1892 77.6155 86.0417C77.2719 85.8942 76.9608 85.6804 76.7 85.4125L44.3125 52.175C43.7437 51.5914 43.4253 50.8087 43.4253 49.9937C43.4253 49.1788 43.7437 48.3961 44.3125 47.8125L76.7 14.5875Z" fill="#CF455C"/>
</svg>
