<svg width="40" height="54" viewBox="0 0 40 54" fill="none" xmlns="http://www.w3.org/2000/svg">
<path d="M36.6667 0H3.33333C2.44928 0 1.60143 0.352605 0.976311 0.980247C0.351189 1.60789 0 2.45915 0 3.34677V50.2016C0 51.0892 0.351189 51.9405 0.976311 52.5681C1.60143 53.1958 2.44928 53.5484 3.33333 53.5484H36.6667C37.5507 53.5484 38.3986 53.1958 39.0237 52.5681C39.6488 51.9405 40 51.0892 40 50.2016V3.34677C40 2.45915 39.6488 1.60789 39.0237 0.980247C38.3986 0.352605 37.5507 0 36.6667 0ZM10 43.5081H6.66667V40.1613H10V43.5081ZM10 33.4677H6.66667V30.121H10V33.4677ZM10 23.4274H6.66667V20.0806H10V23.4274ZM21.6667 43.5081H18.3333V40.1613H21.6667V43.5081ZM21.6667 33.4677H18.3333V30.121H21.6667V33.4677ZM21.6667 23.4274H18.3333V20.0806H21.6667V23.4274ZM33.3333 43.5081H30V40.1613H33.3333V43.5081ZM33.3333 33.4677H30V30.121H33.3333V33.4677ZM33.3333 23.4274H30V20.0806H33.3333V23.4274ZM33.3333 11.7137H6.66667V5.02016H33.3333V11.7137Z" fill="#444444"/>
</svg>
