<svg width="49" height="49" viewBox="0 0 49 49" fill="none" xmlns="http://www.w3.org/2000/svg">
<path d="M44.9532 11.5751C37.7688 0.437584 23.0563 -2.86242 11.6782 4.04696C0.57505 10.9563 -2.99995 26.0126 4.18442 37.1157L4.7688 38.0095L2.36255 47.0157L11.3688 44.6095L12.2626 45.1938C16.1469 47.2907 20.3751 48.4938 24.5688 48.4938C29.0719 48.4938 33.5751 47.2907 37.4594 44.8845C48.5626 37.6657 51.8626 22.9188 44.9532 11.5063V11.5751ZM38.6626 34.7438C37.4594 36.5313 35.9469 37.7345 33.8501 38.0438C32.6469 38.0438 31.1344 38.6282 25.1532 36.2563C20.0657 33.8501 15.8376 29.9313 12.8469 25.4282C11.0594 23.3313 10.1313 20.6157 9.8563 17.9001C9.8563 15.4938 10.7501 13.397 12.2626 11.8845C12.8469 11.3001 13.4657 10.9907 14.0501 10.9907H15.5626C16.1469 10.9907 16.7657 10.9907 17.0751 12.1938C17.6594 13.7063 19.1719 17.3157 19.1719 17.6251C19.4813 17.9345 19.3438 20.2376 17.9688 21.5438C17.2126 22.4032 17.0751 22.4376 17.3844 23.0563C18.5876 24.8438 20.1001 26.6657 21.5782 28.1782C23.3657 29.6907 25.1876 30.8938 27.2844 31.7876C27.8688 32.097 28.4876 32.097 28.7969 31.4782C29.1063 30.8938 30.5844 29.3813 31.2032 28.7626C31.7876 28.1782 32.0969 28.1782 32.7157 28.4532L37.5282 30.8595C38.1126 31.1688 38.7313 31.4438 39.0407 31.7532C39.3501 32.647 39.3501 33.8501 38.7313 34.7438H38.6626Z" fill="#444444"/>
</svg>
